<svg width="29" height="30" viewBox="0 0 29 30" fill="none" xmlns="http://www.w3.org/2000/svg">
<g id="Group">
<g id="Group_2">
<path id="Vector" opacity="0.7" d="M18.8772 5.18848H9.8125V24.812H18.8772V5.18848Z" fill="url(#paint0_linear_637_3195)"/>
<path id="Vector_2" d="M14.3443 9.7198C16.8471 9.7198 18.876 7.69086 18.876 5.18802C18.876 2.68519 16.8471 0.65625 14.3443 0.65625C11.8414 0.65625 9.8125 2.68519 9.8125 5.18802C9.8125 7.69086 11.8414 9.7198 14.3443 9.7198Z" fill="#0086FF"/>
<path id="Vector_3" d="M14.3443 29.3438C16.8471 29.3438 18.876 27.3149 18.876 24.812C18.876 22.3092 16.8471 20.2803 14.3443 20.2803C11.8414 20.2803 9.8125 22.3092 9.8125 24.812C9.8125 27.3149 11.8414 29.3438 14.3443 29.3438Z" fill="#38CFF2"/>
</g>
<g id="Group_3">
<path id="Vector_4" opacity="0.7" d="M24.1562 19.5325V10.4678L4.53269 10.4678V19.5325H24.1562Z" fill="url(#paint1_linear_637_3195)"/>
<path id="Vector_5" d="M24.1568 19.5313C26.6596 19.5313 28.6885 17.5024 28.6885 14.9995C28.6885 12.4967 26.6596 10.4678 24.1568 10.4678C21.6539 10.4678 19.625 12.4967 19.625 14.9995C19.625 17.5024 21.6539 19.5313 24.1568 19.5313Z" fill="#0086FF"/>
<path id="Vector_6" d="M4.53178 19.5313C7.03461 19.5313 9.06355 17.5024 9.06355 14.9995C9.06355 12.4967 7.03461 10.4678 4.53178 10.4678C2.02895 10.4678 0 12.4967 0 14.9995C0 17.5024 2.02895 19.5313 4.53178 19.5313Z" fill="#38CFF2"/>
</g>
</g>
<defs>
<linearGradient id="paint0_linear_637_3195" x1="14.3443" y1="24.812" x2="14.3443" y2="5.18848" gradientUnits="userSpaceOnUse">
<stop stop-color="#38CFF2"/>
<stop offset="1" stop-color="#0086FF"/>
</linearGradient>
<linearGradient id="paint1_linear_637_3195" x1="4.53269" y1="15.0007" x2="24.1562" y2="15.0007" gradientUnits="userSpaceOnUse">
<stop stop-color="#38CFF2"/>
<stop offset="1" stop-color="#0086FF"/>
</linearGradient>
</defs>
</svg>
