<svg width="149" height="14" viewBox="0 0 149 14" fill="none" xmlns="http://www.w3.org/2000/svg">
<g id="Group">
<g id="Group_2">
<path id="Vector" d="M1.4923 3.72356C2.02883 2.75065 2.77639 1.99593 3.73499 1.45224C4.6936 0.908561 5.78454 0.636719 6.9971 0.636719C8.48866 0.636719 9.76202 1.03017 10.8244 1.81708C11.8867 2.60399 12.5949 3.67705 12.9526 5.03627H9.59033C9.33995 4.51047 8.98584 4.11344 8.528 3.83802C8.07016 3.5626 7.54794 3.42667 6.96133 3.42667C6.02062 3.42667 5.25516 3.75575 4.67213 4.41031C4.0891 5.06488 3.7958 5.94122 3.7958 7.03932C3.7958 8.13741 4.0891 9.01375 4.67213 9.66832C5.25516 10.3229 6.02062 10.652 6.96133 10.652C7.54436 10.652 8.06659 10.516 8.528 10.2406C8.98584 9.9652 9.33995 9.56816 9.59033 9.04237H12.9526C12.5949 10.4016 11.8867 11.4711 10.8244 12.2508C9.76202 13.0306 8.48866 13.424 6.9971 13.424C5.78096 13.424 4.6936 13.1522 3.73499 12.6085C2.77639 12.0648 2.02883 11.3137 1.4923 10.3479C0.955765 9.38217 0.6875 8.28049 0.6875 7.03932C0.6875 5.79814 0.955765 4.69289 1.4923 3.71998V3.72356Z" fill="#101747"/>
<path id="Vector_2" d="M21.31 11.1204H16.6243L15.8732 13.338H12.6719L17.2145 0.783203H20.7556L25.2982 13.338H22.0612L21.31 11.1204ZM20.5231 8.75962L18.9672 4.16335L17.4291 8.75962H20.5231Z" fill="#101747"/>
<path id="Vector_3" d="M32.9885 13.338L30.3774 8.59867H29.6442V13.338H26.5859V0.783203H31.7187C32.7095 0.783203 33.5501 0.954897 34.2476 1.30185C34.9451 1.64881 35.4673 2.12095 35.8143 2.72544C36.1612 3.32636 36.3329 3.99881 36.3329 4.73564C36.3329 5.56905 36.0968 6.31662 35.6247 6.97119C35.1525 7.62575 34.4586 8.09076 33.5394 8.36618L36.4366 13.338H32.985H32.9885ZM29.6442 6.43466H31.5399C32.1015 6.43466 32.52 6.29874 32.799 6.02332C33.078 5.7479 33.2175 5.3616 33.2175 4.86083C33.2175 4.36007 33.078 4.00954 32.799 3.73412C32.52 3.4587 32.0979 3.32278 31.5399 3.32278H29.6442V6.43466Z" fill="#101747"/>
<path id="Vector_4" d="M41.1246 3.23336V5.77294H45.2201V8.13367H41.1246V10.8879H45.7567V13.338H38.0664V0.783203H45.7567V3.23336H41.1246Z" fill="#101747"/>
<path id="Vector_5" d="M50.6207 3.23336V5.77294H54.7162V8.13367H50.6207V10.8879H55.2528V13.338H47.5625V0.783203H55.2528V3.23336H50.6207Z" fill="#101747"/>
<path id="Vector_6" d="M63.6409 13.338L61.0298 8.59867H60.2965V13.338H57.2383V0.783203H62.3711C63.3619 0.783203 64.2024 0.954897 64.9035 1.30185C65.601 1.64881 66.1232 2.12095 66.4702 2.72544C66.8171 3.32636 66.9888 3.99881 66.9888 4.73564C66.9888 5.56905 66.7528 6.31662 66.2842 6.97119C65.812 7.62575 65.1181 8.09076 64.1989 8.36618L67.0961 13.338H63.6445H63.6409ZM60.2965 6.43466H62.1922C62.7538 6.43466 63.1723 6.29874 63.4513 6.02332C63.7303 5.7479 63.8734 5.3616 63.8734 4.86083C63.8734 4.36007 63.7339 4.00954 63.4513 3.73412C63.1687 3.4587 62.7502 3.32278 62.1922 3.32278H60.2965V6.43466Z" fill="#101747"/>
<path id="Vector_7" d="M79.7239 1.57012C80.7147 2.09592 81.4802 2.83275 82.0203 3.78062C82.564 4.72849 82.8358 5.82301 82.8358 7.06061C82.8358 8.29821 82.564 9.37843 82.0203 10.3335C81.4766 11.2885 80.7076 12.0253 79.7132 12.5511C78.7188 13.0769 77.5635 13.338 76.2544 13.338H71.5508V0.783203H76.2544C77.5778 0.783203 78.7331 1.04432 79.7239 1.57012ZM78.7582 9.74326C79.402 9.11016 79.7239 8.21594 79.7239 7.06061C79.7239 5.90528 79.402 5.00391 78.7582 4.36007C78.1143 3.71624 77.213 3.39432 76.0576 3.39432H74.609V10.6911H76.0576C77.213 10.6911 78.1143 10.3764 78.7582 9.74326Z" fill="#101747"/>
<path id="Vector_8" d="M86.9038 12.6407C85.9201 12.0934 85.1404 11.328 84.5609 10.3443C83.9815 9.36068 83.6953 8.25542 83.6953 7.02498C83.6953 5.79454 83.985 4.69286 84.5609 3.71637C85.1404 2.73989 85.9201 1.97443 86.9038 1.42717C87.8874 0.879907 88.9712 0.604492 90.1516 0.604492C91.3319 0.604492 92.4157 0.879907 93.3994 1.42717C94.383 1.97443 95.1592 2.73989 95.7243 3.71637C96.2895 4.69286 96.5756 5.79811 96.5756 7.02498C96.5756 8.25185 96.2895 9.36068 95.7172 10.3443C95.1449 11.328 94.3687 12.0934 93.3922 12.6407C92.4157 13.1879 91.3355 13.4633 90.1551 13.4633C88.9748 13.4633 87.891 13.1879 86.9073 12.6407H86.9038ZM92.5552 9.67186C93.1561 9.00299 93.4602 8.12308 93.4602 7.02498C93.4602 5.92688 93.1597 5.03266 92.5552 4.37094C91.9543 3.70922 91.1531 3.38015 90.1516 3.38015C89.15 3.38015 88.3309 3.70922 87.7264 4.36379C87.1255 5.01835 86.8251 5.90899 86.8251 7.02855C86.8251 8.14811 87.1255 9.02444 87.7264 9.68616C88.3274 10.3479 89.1357 10.677 90.1516 10.677C91.1674 10.677 91.9543 10.3443 92.5552 9.67543V9.67186Z" fill="#101747"/>
<path id="Vector_9" d="M98.2189 3.72356C98.7554 2.75065 99.503 1.99593 100.462 1.45224C101.42 0.908561 102.511 0.636719 103.724 0.636719C105.215 0.636719 106.489 1.03017 107.551 1.81708C108.613 2.60399 109.321 3.67705 109.679 5.03627H106.317C106.067 4.51047 105.712 4.11344 105.255 3.83802C104.797 3.5626 104.274 3.42667 103.688 3.42667C102.747 3.42667 101.982 3.75575 101.399 4.41031C100.816 5.06488 100.522 5.94122 100.522 7.03932C100.522 8.13741 100.816 9.01375 101.399 9.66832C101.982 10.3229 102.747 10.652 103.688 10.652C104.271 10.652 104.793 10.516 105.255 10.2406C105.712 9.9652 106.067 9.56816 106.317 9.04237H109.679C109.321 10.4016 108.613 11.4711 107.551 12.2508C106.489 13.0306 105.215 13.424 103.724 13.424C102.508 13.424 101.42 13.1522 100.462 12.6085C99.503 12.0648 98.7554 11.3137 98.2189 10.3479C97.6823 9.38217 97.4141 8.28049 97.4141 7.03932C97.4141 5.79814 97.6823 4.69289 98.2189 3.71998V3.72356Z" fill="#101747"/>
<path id="Vector_10" d="M127.716 12.6407C126.733 12.0934 125.953 11.328 125.373 10.3443C124.794 9.36068 124.508 8.25542 124.508 7.02498C124.508 5.79454 124.798 4.69286 125.373 3.71637C125.953 2.73989 126.733 1.97443 127.716 1.42717C128.7 0.879907 129.784 0.604492 130.964 0.604492C132.144 0.604492 133.228 0.879907 134.212 1.42717C135.195 1.97443 135.972 2.73989 136.537 3.71637C137.102 4.69286 137.388 5.79811 137.388 7.02498C137.388 8.25185 137.102 9.36068 136.53 10.3443C135.957 11.328 135.181 12.0934 134.205 12.6407C133.228 13.1879 132.148 13.4633 130.968 13.4633C129.787 13.4633 128.703 13.1879 127.72 12.6407H127.716ZM133.368 9.67186C133.969 9.00299 134.273 8.12308 134.273 7.02498C134.273 5.92688 133.972 5.03266 133.368 4.37094C132.767 3.70922 131.966 3.38015 130.964 3.38015C129.963 3.38015 129.143 3.70922 128.539 4.36379C127.938 5.01835 127.638 5.90899 127.638 7.02855C127.638 8.14811 127.938 9.02444 128.539 9.68616C129.14 10.3479 129.948 10.677 130.964 10.677C131.98 10.677 132.767 10.3443 133.368 9.67543V9.67186Z" fill="#101747"/>
<path id="Vector_11" d="M145.09 13.338L142.479 8.59867H141.746V13.338H138.688V0.783203H143.82C144.811 0.783203 145.652 0.954897 146.353 1.30185C147.05 1.64881 147.572 2.12095 147.919 2.72544C148.266 3.32636 148.438 3.99881 148.438 4.73564C148.438 5.56905 148.202 6.31662 147.733 6.97119C147.261 7.62575 146.567 8.09076 145.648 8.36618L148.545 13.338H145.094H145.09ZM141.746 6.43466H143.641C144.203 6.43466 144.622 6.29874 144.901 6.02332C145.18 5.7479 145.323 5.3616 145.323 4.86083C145.323 4.36007 145.183 4.00954 144.901 3.73412C144.618 3.4587 144.199 3.32278 143.641 3.32278H141.746V6.43466Z" fill="#101747"/>
</g>
<g id="Group_3">
<path id="Vector_12" d="M119.185 0.536133H114.742V13.463H119.185V0.536133Z" fill="#0068FF"/>
<path id="Vector_13" d="M123.426 9.2208V4.77832L110.499 4.77832V9.2208H123.426Z" fill="#0068FF"/>
</g>
</g>
</svg>
